<?xml version="1.0" encoding="UTF-8"?><svg xmlns="http://www.w3.org/2000/svg" style="isolation:isolate" viewBox="0 0 240 240" width="240pt" height="240pt"><defs><style>#kv-cloud {animation:kv-cloud linear 3.2s infinite;transform-origin: 50% 60%;} @keyframes kv-cloud {0%, 84% {transform:scale(1.0,1.0);} 85% {transform:scale(1.0,1.02);} 90% {transform:scale(1.02, 0.96);} 95% {transform:scale(0.92,1.0);}100% {transform:scale(1.0,1.0);}} #kv-p0 {animation:kv-p0 ease-out 3.2s infinite;}@keyframes kv-p0 {0% {transform:translate(0, 0);opacity:0;} 30% {transform:translate(10pt, -25pt);opacity:1;} 60%, 100% {transform:translate(20pt,-50pt);opacity:0;}} #kv-p1 {animation:kv-p1 ease-out 3.2s infinite;} @keyframes kv-p1 {0%, 25% {transform:translate(0,0);opacity:0;} 55% {transform:translate(3pt, -25pt);opacity:1;} 85%, 100% {transform:translate(6pt,-50pt);opacity:0;}} #kv-p2 {animation:kv-p2 ease-out 3.2s infinite;} @keyframes kv-p2 {0%, 20% {transform:translate(0,0);opacity:0;} 50% {transform:translate(-3pt, -25pt);opacity:1;} 80%, 100% {transform:translate(-6pt,-50pt);opacity:0;}} #kv-p3 {animation:kv-p3 ease-out 3.2s infinite;} @keyframes kv-p3 {0%, 10% {transform:translate(0,0);opacity:0;} 40% {transform:translate(-10pt, -25pt);opacity:1;} 70%, 100% {transform:translate(-20pt,-50pt);opacity:0;}}</style></defs><g><path d=" M 20.526 189.329 C 19.162 189.932 17.873 190.682 16.689 191.574 L 20.127 195.3 C 20.941 194.725 21.838 194.22 22.823 193.801 C 21.158 192.671 20.419 191.026 20.526 189.329 ZM 40.33 189.34 C 42.88 190.5 45.13 192.23 46.92 194.39 C 48.5 196.3 49.72 198.48 50.55 200.82 C 51.29 202.88 51.76 205.03 51.95 207.22 C 51.96 207.29 51.96 207.36 51.97 207.43 L 51.99 207.98 C 52 208.05 52 208.11 52 208.17 C 52.01 209.07 51.89 209.96 51.65 210.82 C 51.42 211.69 51.04 212.51 50.53 213.25 C 49.45 214.86 47.72 215.94 45.8 216.19 C 45.87 217.71 45.91 219.22 45.91 220.74 C 45.92 221.77 45.89 222.81 45.83 223.84 C 45.79 224.8 45.69 225.75 45.54 226.7 C 45.23 228.65 44.22 230.43 42.7 231.69 C 41.27 232.85 39.49 233.49 37.64 233.49 C 35.76 233.49 33.93 232.81 32.5 231.58 C 31.34 230.56 30.48 229.24 30 227.77 C 29.52 229.24 28.66 230.56 27.5 231.58 C 26.07 232.81 24.24 233.49 22.36 233.49 C 20.51 233.49 18.73 232.85 17.3 231.69 C 15.78 230.43 14.77 228.65 14.46 226.7 C 14.31 225.75 14.21 224.8 14.17 223.84 C 14.11 222.81 14.08 221.77 14.09 220.74 C 14.09 219.22 14.13 217.71 14.2 216.19 C 12.28 215.94 10.55 214.86 9.47 213.25 C 8.96 212.51 8.58 211.69 8.35 210.82 C 8.11 209.96 7.99 209.07 8 208.17 C 8 208.11 8 208.05 8.01 207.98 L 8.03 207.43 C 8.04 207.35 8.04 207.27 8.05 207.19 C 8.26 204.91 8.82 202.68 9.7 200.58 C 10.67 198.23 12.03 196.07 13.74 194.2 C 14.635 193.225 15.62 192.342 16.689 191.574 L 20.127 195.3 C 15.564 198.352 13.419 203.416 13.026 207.661 C 12.685 211.356 15.758 212.635 17.072 209.406 C 18.475 205.96 20.309 203.25 20.309 203.25 C 20.309 203.25 18.338 219.523 19.402 225.925 C 19.939 229.159 24.598 229.604 25.373 225.693 C 25.916 222.948 26.53 218.409 30 218.409 C 33.47 218.409 34.084 222.948 34.627 225.693 C 35.402 229.604 40.061 229.159 40.598 225.925 C 41.662 219.523 39.691 203.25 39.691 203.25 C 39.691 203.25 41.525 205.96 42.928 209.406 C 44.242 212.635 47.315 211.356 46.974 207.661 C 46.495 202.48 44.017 196.079 37.452 193.542 C 38.771 192.05 39.783 189.09 40.33 189.34 Z " fill-rule="evenodd" fill="#444440" /><path d=" M 14.5 181.295 C 14.5 172.627 21.537 165.59 30.205 165.59 C 38.873 165.59 45.91 172.627 45.91 181.295 C 45.91 189.963 38.873 197 30.205 197 C 21.537 197 14.5 189.963 14.5 181.295 ZM 19.5 181.3 C 19.5 178.46 20.63 175.73 22.64 173.73 C 24.64 171.72 27.37 170.59 30.2 170.59 C 33.04 170.59 35.77 171.72 37.77 173.73 C 39.78 175.73 40.91 178.46 40.91 181.3 C 40.91 184.13 39.78 186.86 37.77 188.86 C 35.77 190.87 33.04 192 30.2 192 C 27.37 192 24.64 190.87 22.64 188.86 C 20.63 186.86 19.5 184.13 19.5 181.3 Z " fill-rule="evenodd" fill="#444440" /></g><g><path d=" M 85.99 196.152 C 84.837 196.661 83.747 197.295 82.746 198.05 L 85.653 201.2 C 86.341 200.714 87.1 200.287 87.932 199.933 C 86.525 198.977 85.9 197.586 85.99 196.152 ZM 102.735 196.161 C 104.891 197.142 106.793 198.604 108.307 200.431 C 109.642 202.046 110.674 203.889 111.376 205.867 C 112.001 207.609 112.399 209.427 112.559 211.279 C 112.568 211.338 112.568 211.397 112.576 211.456 L 112.593 211.921 C 112.602 211.98 112.602 212.031 112.602 212.082 C 112.61 212.843 112.509 213.595 112.306 214.322 C 112.111 215.058 111.79 215.751 111.359 216.377 C 110.446 217.738 108.983 218.651 107.36 218.863 C 107.419 220.148 107.453 221.425 107.453 222.71 C 107.461 223.581 107.436 224.46 107.385 225.331 C 107.351 226.143 107.267 226.946 107.14 227.749 C 106.878 229.398 106.024 230.903 104.739 231.968 C 103.529 232.949 102.024 233.49 100.46 233.49 C 98.871 233.49 97.323 232.915 96.114 231.875 C 95.134 231.013 94.406 229.897 94.001 228.654 C 93.595 229.897 92.868 231.013 91.887 231.875 C 90.678 232.915 89.13 233.49 87.541 233.49 C 85.977 233.49 84.472 232.949 83.263 231.968 C 81.977 230.903 81.123 229.398 80.861 227.749 C 80.735 226.946 80.65 226.143 80.616 225.331 C 80.565 224.46 80.54 223.581 80.549 222.71 C 80.549 221.425 80.582 220.148 80.642 218.863 C 79.018 218.651 77.555 217.738 76.642 216.377 C 76.211 215.751 75.89 215.058 75.695 214.322 C 75.492 213.595 75.391 212.843 75.399 212.082 C 75.399 212.031 75.399 211.98 75.408 211.921 L 75.425 211.456 C 75.433 211.388 75.433 211.321 75.442 211.253 C 75.619 209.325 76.093 207.44 76.837 205.664 C 77.657 203.677 78.807 201.851 80.253 200.27 C 81.01 199.446 81.842 198.699 82.746 198.05 L 85.653 201.2 C 81.795 203.781 79.981 208.062 79.649 211.651 C 79.361 214.775 81.959 215.857 83.07 213.127 C 84.256 210.213 85.807 207.922 85.807 207.922 C 85.807 207.922 84.141 221.681 85.04 227.094 C 85.494 229.828 89.433 230.205 90.088 226.898 C 90.548 224.577 91.066 220.739 94.001 220.739 C 96.935 220.739 97.453 224.577 97.913 226.898 C 98.568 230.205 102.507 229.828 102.961 227.094 C 103.861 221.681 102.194 207.922 102.194 207.922 C 102.194 207.922 103.745 210.213 104.931 213.127 C 106.042 215.857 108.641 214.775 108.352 211.651 C 107.947 207.271 105.852 201.859 100.301 199.713 C 101.417 198.453 102.272 195.949 102.735 196.161 Z " fill-rule="evenodd" fill="#444440" /><path d=" M 80.895 189.359 C 80.895 182.03 86.845 176.08 94.174 176.08 C 101.503 176.08 107.453 182.03 107.453 189.359 C 107.453 196.687 101.503 202.637 94.174 202.637 C 86.845 202.637 80.895 196.687 80.895 189.359 ZM 85.123 189.363 C 85.123 186.962 86.078 184.653 87.778 182.962 C 89.469 181.263 91.777 180.308 94.17 180.308 C 96.571 180.308 98.879 181.263 100.57 182.962 C 102.27 184.653 103.225 186.962 103.225 189.363 C 103.225 191.756 102.27 194.064 100.57 195.755 C 98.879 197.454 96.571 198.41 94.17 198.41 C 91.777 198.41 89.469 197.454 87.778 195.755 C 86.078 194.064 85.123 191.756 85.123 189.363 Z " fill-rule="evenodd" fill="#444440" /></g><g><path d=" M 141.53 194.799 C 140.339 195.325 139.214 195.979 138.181 196.759 L 141.181 200.01 C 141.891 199.509 142.675 199.068 143.534 198.702 C 142.082 197.715 141.436 196.28 141.53 194.799 ZM 158.814 194.809 C 161.04 195.821 163.003 197.331 164.566 199.216 C 165.945 200.883 167.01 202.786 167.734 204.828 C 168.38 206.626 168.79 208.502 168.956 210.414 C 168.965 210.475 168.965 210.536 168.973 210.597 L 168.991 211.077 C 168.999 211.138 168.999 211.191 168.999 211.243 C 169.008 212.028 168.903 212.805 168.694 213.556 C 168.493 214.315 168.162 215.031 167.717 215.677 C 166.774 217.082 165.264 218.024 163.588 218.243 C 163.649 219.569 163.684 220.887 163.684 222.214 C 163.693 223.113 163.667 224.02 163.614 224.919 C 163.58 225.757 163.492 226.586 163.361 227.416 C 163.091 229.118 162.209 230.671 160.883 231.771 C 159.635 232.783 158.081 233.342 156.466 233.342 C 154.826 233.342 153.228 232.748 151.98 231.675 C 150.968 230.785 150.217 229.632 149.798 228.349 C 149.379 229.632 148.629 230.785 147.616 231.675 C 146.368 232.748 144.771 233.342 143.13 233.342 C 141.516 233.342 139.962 232.783 138.714 231.771 C 137.387 230.671 136.506 229.118 136.235 227.416 C 136.104 226.586 136.017 225.757 135.982 224.919 C 135.93 224.02 135.904 223.113 135.912 222.214 C 135.912 220.887 135.947 219.569 136.008 218.243 C 134.333 218.024 132.823 217.082 131.88 215.677 C 131.435 215.031 131.103 214.315 130.903 213.556 C 130.693 212.805 130.588 212.028 130.597 211.243 C 130.597 211.191 130.597 211.138 130.606 211.077 L 130.623 210.597 C 130.632 210.527 130.632 210.457 130.641 210.388 C 130.824 208.398 131.313 206.451 132.081 204.619 C 132.927 202.568 134.114 200.682 135.607 199.05 C 136.388 198.2 137.248 197.429 138.181 196.759 L 141.181 200.01 C 137.199 202.674 135.326 207.094 134.984 210.799 C 134.686 214.023 137.368 215.14 138.515 212.322 C 139.739 209.314 141.34 206.949 141.34 206.949 C 141.34 206.949 139.62 221.151 140.549 226.739 C 141.017 229.562 145.084 229.95 145.76 226.537 C 146.234 224.141 146.769 220.179 149.798 220.179 C 152.827 220.179 153.362 224.141 153.837 226.537 C 154.513 229.95 158.579 229.562 159.048 226.739 C 159.976 221.151 158.256 206.949 158.256 206.949 C 158.256 206.949 159.857 209.314 161.082 212.322 C 162.228 215.14 164.911 214.023 164.613 210.799 C 164.195 206.277 162.032 200.691 156.302 198.476 C 157.454 197.174 158.337 194.59 158.814 194.809 Z " fill-rule="evenodd" fill="#444440" /><path d=" M 136.27 187.787 C 136.27 180.222 142.412 174.08 149.977 174.08 C 157.542 174.08 163.684 180.222 163.684 187.787 C 163.684 195.352 157.542 201.494 149.977 201.494 C 142.412 201.494 136.27 195.352 136.27 187.787 ZM 140.634 187.791 C 140.634 185.313 141.62 182.93 143.375 181.184 C 145.12 179.43 147.503 178.444 149.973 178.444 C 152.452 178.444 154.834 179.43 156.58 181.184 C 158.334 182.93 159.32 185.313 159.32 187.791 C 159.32 190.261 158.334 192.644 156.58 194.39 C 154.834 196.144 152.452 197.13 149.973 197.13 C 147.503 197.13 145.12 196.144 143.375 194.39 C 141.62 192.644 140.634 190.261 140.634 187.791 Z " fill-rule="evenodd" fill="#444440" /></g><g><path d=" M 199.676 189.181 C 198.312 189.784 197.023 190.533 195.839 191.426 L 199.277 195.152 C 200.091 194.577 200.988 194.072 201.973 193.653 C 200.308 192.522 199.569 190.878 199.676 189.181 ZM 219.48 189.192 C 222.03 190.352 224.28 192.082 226.07 194.242 C 227.65 196.152 228.87 198.332 229.7 200.672 C 230.44 202.732 230.91 204.882 231.1 207.072 C 231.11 207.142 231.11 207.212 231.12 207.282 L 231.14 207.832 C 231.15 207.902 231.15 207.962 231.15 208.022 C 231.16 208.922 231.04 209.812 230.8 210.672 C 230.57 211.542 230.19 212.362 229.68 213.102 C 228.6 214.712 226.87 215.792 224.95 216.042 C 225.02 217.562 225.06 219.072 225.06 220.592 C 225.07 221.622 225.04 222.662 224.98 223.692 C 224.94 224.652 224.84 225.602 224.69 226.552 C 224.38 228.502 223.37 230.282 221.85 231.542 C 220.42 232.702 218.64 233.342 216.79 233.342 C 214.91 233.342 213.08 232.662 211.65 231.432 C 210.49 230.412 209.63 229.092 209.15 227.622 C 208.67 229.092 207.81 230.412 206.65 231.432 C 205.22 232.662 203.39 233.342 201.51 233.342 C 199.66 233.342 197.88 232.702 196.45 231.542 C 194.93 230.282 193.92 228.502 193.61 226.552 C 193.46 225.602 193.36 224.652 193.32 223.692 C 193.26 222.662 193.23 221.622 193.24 220.592 C 193.24 219.072 193.28 217.562 193.35 216.042 C 191.43 215.792 189.7 214.712 188.62 213.102 C 188.11 212.362 187.73 211.542 187.5 210.672 C 187.26 209.812 187.14 208.922 187.15 208.022 C 187.15 207.962 187.15 207.902 187.16 207.832 L 187.18 207.282 C 187.19 207.202 187.19 207.122 187.2 207.042 C 187.41 204.762 187.97 202.532 188.85 200.432 C 189.82 198.082 191.18 195.922 192.89 194.052 C 193.785 193.077 194.77 192.194 195.839 191.426 L 199.277 195.152 C 194.714 198.204 192.569 203.268 192.176 207.513 C 191.835 211.207 194.908 212.487 196.222 209.258 C 197.625 205.811 199.459 203.102 199.459 203.102 C 199.459 203.102 197.488 219.374 198.552 225.777 C 199.089 229.011 203.748 229.456 204.523 225.545 C 205.066 222.8 205.68 218.261 209.15 218.261 C 212.62 218.261 213.234 222.8 213.777 225.545 C 214.552 229.456 219.211 229.011 219.748 225.777 C 220.812 219.374 218.841 203.102 218.841 203.102 C 218.841 203.102 220.675 205.811 222.078 209.258 C 223.392 212.487 226.465 211.207 226.124 207.513 C 225.645 202.332 223.167 195.931 216.602 193.393 C 217.921 191.902 218.933 188.942 219.48 189.192 Z " fill-rule="evenodd" fill="#444440" /><path d=" M 193.65 181.147 C 193.65 172.479 200.687 165.442 209.355 165.442 C 218.023 165.442 225.06 172.479 225.06 181.147 C 225.06 189.815 218.023 196.852 209.355 196.852 C 200.687 196.852 193.65 189.815 193.65 181.147 ZM 198.65 181.152 C 198.65 178.312 199.78 175.582 201.79 173.582 C 203.79 171.572 206.52 170.442 209.35 170.442 C 212.19 170.442 214.92 171.572 216.92 173.582 C 218.93 175.582 220.06 178.312 220.06 181.152 C 220.06 183.982 218.93 186.712 216.92 188.712 C 214.92 190.722 212.19 191.852 209.35 191.852 C 206.52 191.852 203.79 190.722 201.79 188.712 C 199.78 186.712 198.65 183.982 198.65 181.152 Z " fill-rule="evenodd" fill="#444440" /></g><path id="kv-cloud" d=" M 168 52 C 168 61.721 160.121 69.6 150.4 69.6 L 99.8 69.6 C 88.869 69.6 80 60.731 80 49.8 C 80 41.165 85.527 33.823 93.228 31.114 C 93.214 30.742 93.2 30.371 93.2 30 C 93.2 17.845 103.045 8 115.2 8 C 123.354 8 130.462 12.427 134.271 19.028 C 136.361 17.625 138.891 16.8 141.6 16.8 C 148.887 16.8 154.8 22.712 154.8 30 C 154.8 31.677 154.484 33.286 153.92 34.757 C 161.95 36.38 168 43.489 168 52 ZM 98.23 30.99 C 98.23 30.97 98.22 30.95 98.22 30.93 L 98.22 30.93 L 98.23 30.99 L 98.23 30.99 ZM 98.23 30.99 L 98.2 29.94 C 98.22 25.45 100.01 21.13 103.2 17.96 C 106.38 14.78 110.7 13 115.2 13 C 121.27 13 126.91 16.26 129.94 21.52 C 130.63 22.72 131.79 23.58 133.14 23.9 C 134.49 24.21 135.91 23.95 137.06 23.18 C 138.4 22.28 139.98 21.8 141.6 21.8 C 143.77 21.8 145.86 22.66 147.4 24.2 C 148.94 25.74 149.8 27.83 149.8 30 C 149.8 31.01 149.61 32.02 149.25 32.97 C 148.73 34.34 148.83 35.88 149.54 37.16 C 150.25 38.45 151.49 39.37 152.93 39.66 C 155.77 40.24 158.33 41.78 160.17 44.03 C 162 46.28 163 49.09 163 52 C 163 55.34 161.67 58.55 159.31 60.91 C 156.95 63.27 153.74 64.6 150.4 64.6 L 99.8 64.6 C 95.88 64.6 92.11 63.04 89.33 60.26 C 86.56 57.49 85 53.72 85 49.8 C 85 46.73 85.95 43.74 87.72 41.24 C 89.49 38.74 92 36.85 94.89 35.83 C 95.88 35.48 96.74 34.82 97.34 33.95 C 97.94 33.08 98.25 32.05 98.23 30.99 ZM 100.3 38.8 L 100.3 38.8 C 101.68 38.8 102.8 39.997 102.8 41.47 L 102.8 45.03 C 102.8 46.503 101.68 47.7 100.3 47.7 L 100.3 47.7 C 98.92 47.7 97.8 46.503 97.8 45.03 L 97.8 41.47 C 97.8 39.997 98.92 38.8 100.3 38.8 ZM 107.5 39.9 L 107.5 39.9 C 108.88 39.9 110 41.097 110 42.57 L 110 46.13 C 110 47.603 108.88 48.8 107.5 48.8 L 107.5 48.8 C 106.12 48.8 105 47.603 105 46.13 L 105 42.57 C 105 41.097 106.12 39.9 107.5 39.9 Z " fill-rule="evenodd" fill="#444440" /><path id="kv-p0" d=" M 41.918 138.586 L 42.253 138.456 C 43.138 138.113 44.135 138.553 44.478 139.438 L 45.422 141.874 C 45.765 142.759 45.325 143.756 44.44 144.099 L 44.106 144.229 C 43.221 144.572 42.223 144.132 41.88 143.247 L 40.936 140.811 C 40.593 139.926 41.033 138.929 41.918 138.586 L 41.918 138.586 ZM 57.611 139.46 C 56.27 135.997 53.62 133.205 50.246 131.697 C 46.871 130.189 43.048 130.089 39.617 131.419 C 32.473 134.188 29.105 142.267 31.742 149.486 Q 33.065 153.111 38.889 157.452 L 35.94 161.854 C 35.94 161.854 37.832 161.435 49.736 157.527 C 56.88 154.758 60.406 146.669 57.611 139.46 L 57.611 139.46 ZM 48.304 137.042 L 48.638 136.912 C 49.523 136.569 50.52 137.009 50.863 137.895 L 51.807 140.33 C 52.15 141.215 51.71 142.212 50.825 142.555 L 50.491 142.685 C 49.606 143.028 48.609 142.588 48.266 141.703 L 47.322 139.267 C 46.979 138.382 47.419 137.385 48.304 137.042 Z " fill-rule="evenodd" fill="#444440" /><path id="kv-p1" d=" M 91.069 152.372 L 91.321 152.161 C 91.989 151.603 92.985 151.692 93.543 152.36 L 95.079 154.197 C 95.637 154.865 95.548 155.861 94.88 156.419 L 94.628 156.63 C 93.96 157.188 92.965 157.099 92.407 156.431 L 90.871 154.593 C 90.312 153.926 90.401 152.93 91.069 152.372 L 91.069 152.372 ZM 104.956 148.516 C 102.772 145.903 99.65 144.257 96.276 143.94 C 92.901 143.623 89.551 144.66 86.963 146.824 C 81.573 151.33 81.023 159.337 85.436 164.832 Q 87.652 167.591 93.986 169.648 L 92.719 174.339 C 92.719 174.339 94.239 173.418 103.429 166.523 C 108.819 162.018 109.503 153.956 104.956 148.516 L 104.956 148.516 ZM 96.161 149.153 L 96.413 148.943 C 97.081 148.384 98.076 148.473 98.635 149.141 L 100.171 150.979 C 100.729 151.647 100.64 152.642 99.972 153.2 L 99.72 153.411 C 99.052 153.969 98.057 153.88 97.498 153.213 L 95.962 151.375 C 95.404 150.707 95.493 149.712 96.161 149.153 Z " fill-rule="evenodd" fill="#444440" /><path id="kv-p2" d=" M 152.378 152.372 L 152.125 152.161 C 151.457 151.603 150.462 151.692 149.904 152.36 L 148.368 154.197 C 147.81 154.865 147.898 155.861 148.566 156.419 L 148.819 156.63 C 149.486 157.188 150.482 157.099 151.04 156.431 L 152.576 154.593 C 153.134 153.926 153.045 152.93 152.378 152.372 L 152.378 152.372 ZM 138.491 148.516 C 140.674 145.903 143.797 144.257 147.171 143.94 C 150.546 143.623 153.896 144.66 156.484 146.824 C 161.874 151.33 162.423 159.337 158.011 164.832 Q 155.795 167.591 149.461 169.648 L 150.728 174.339 C 150.728 174.339 149.208 173.418 140.018 166.523 C 134.628 162.018 133.944 153.956 138.491 148.516 L 138.491 148.516 ZM 147.286 149.153 L 147.034 148.943 C 146.366 148.384 145.37 148.473 144.812 149.141 L 143.276 150.979 C 142.718 151.647 142.807 152.642 143.475 153.2 L 143.727 153.411 C 144.395 153.969 145.39 153.88 145.948 153.213 L 147.484 151.375 C 148.043 150.707 147.954 149.712 147.286 149.153 Z " fill-rule="evenodd" fill="#444440" /><path id="kv-p3" d=" M 200.499 138.586 L 200.165 138.456 C 199.28 138.113 198.283 138.553 197.94 139.438 L 196.996 141.874 C 196.653 142.759 197.093 143.756 197.978 144.099 L 198.312 144.229 C 199.197 144.572 200.194 144.132 200.537 143.247 L 201.481 140.811 C 201.824 139.926 201.384 138.929 200.499 138.586 L 200.499 138.586 ZM 184.806 139.46 C 186.148 135.997 188.797 133.205 192.172 131.697 C 195.547 130.189 199.37 130.089 202.801 131.419 C 209.944 134.188 213.313 142.267 210.676 149.486 Q 209.352 153.111 203.528 157.452 L 206.478 161.854 C 206.478 161.854 204.586 161.435 192.682 157.527 C 185.538 154.758 182.012 146.669 184.806 139.46 L 184.806 139.46 ZM 194.114 137.042 L 193.78 136.912 C 192.895 136.569 191.897 137.009 191.554 137.895 L 190.61 140.33 C 190.267 141.215 190.707 142.212 191.592 142.555 L 191.927 142.685 C 192.812 143.028 193.809 142.588 194.152 141.703 L 195.096 139.267 C 195.439 138.382 194.999 137.385 194.114 137.042 Z " fill-rule="evenodd" fill="#444440" /></svg>