<?xml version="1.0" encoding="UTF-8"?><svg width="240pt" height="240pt" viewBox="0 0 240 240" xmlns="http://www.w3.org/2000/svg"><defs><style>#p1 {animation: p1 linear 3.2s infinite;} @keyframes p1 {0% {transform: translate(0, 0);opacity: 0;} 30% {transform: translate(15pt, -20pt);opacity: 1;} 60%, 100% {transform: translate(30pt, -40pt);opacity: 0;}} #p2 {animation: p2 linear 3.2s infinite;} @keyframes p2 {0%, 35% {transform: translate(0, 0);opacity: 0;} 65% {transform: translate(0, -21pt);opacity: 1;}95%, 100% {transform: translate(0, -42pt);opacity: 0;}}#p3 {animation: p3 linear 3.2s infinite;} @keyframes p3 {0%, 20% {transform: translate(0, 0);opacity: 0;} 50% {transform: translate(-15px, -20pt);opacity: 1;} 80%, 100% {transform: translate(-30pt, -40pt);opacity: 0;}} #cloud {animation: cloud linear 3.2s infinite;transform-origin: 50% 60%;} @keyframes cloud {0%, 79% {transform: scale(1.0, 1.0);} 80% {transform: scale(1.0, 1.02);} 85% {transform: scale(1.0, 0.95);} 90% {transform: scale(0.9, 1.0);} 98%, 100% {transform: scale(1.0, 1.0);}}</style></defs><g><mask id="mask-h1-0" x="-200%" y="-200%" width="400%" height="400%"><rect x="-200%" y="-200%" width="400%" height="400%" style="fill:#fff;"/><path d=" M 30 186.842 C 18.51 186.842 13.638 201.045 13.026 207.661 C 12.685 211.356 15.758 212.635 17.072 209.406 C 18.475 205.96 20.309 203.25 20.309 203.25 C 20.309 203.25 18.338 219.523 19.402 225.925 C 19.939 229.159 24.598 229.604 25.373 225.693 C 25.916 222.948 26.53 218.409 30 218.409 C 33.47 218.409 34.084 222.948 34.627 225.693 C 35.402 229.604 40.061 229.159 40.598 225.925 C 41.662 219.523 39.691 203.25 39.691 203.25 C 39.691 203.25 41.525 205.96 42.928 209.406 C 44.242 212.635 47.315 211.356 46.974 207.661 C 46.362 201.045 41.49 186.842 30 186.842 L 30 186.842 Z " fill="black" stroke="none"/></mask><path d=" M 30 186.842 C 18.51 186.842 13.638 201.045 13.026 207.661 C 12.685 211.356 15.758 212.635 17.072 209.406 C 18.475 205.96 20.309 203.25 20.309 203.25 C 20.309 203.25 18.338 219.523 19.402 225.925 C 19.939 229.159 24.598 229.604 25.373 225.693 C 25.916 222.948 26.53 218.409 30 218.409 C 33.47 218.409 34.084 222.948 34.627 225.693 C 35.402 229.604 40.061 229.159 40.598 225.925 C 41.662 219.523 39.691 203.25 39.691 203.25 C 39.691 203.25 41.525 205.96 42.928 209.406 C 44.242 212.635 47.315 211.356 46.974 207.661 C 46.362 201.045 41.49 186.842 30 186.842 L 30 186.842 Z " fill="rgb(255,255,255)"/><path d=" M 30 186.842 C 18.51 186.842 13.638 201.045 13.026 207.661 C 12.685 211.356 15.758 212.635 17.072 209.406 C 18.475 205.96 20.309 203.25 20.309 203.25 C 20.309 203.25 18.338 219.523 19.402 225.925 C 19.939 229.159 24.598 229.604 25.373 225.693 C 25.916 222.948 26.53 218.409 30 218.409 C 33.47 218.409 34.084 222.948 34.627 225.693 C 35.402 229.604 40.061 229.159 40.598 225.925 C 41.662 219.523 39.691 203.25 39.691 203.25 C 39.691 203.25 41.525 205.96 42.928 209.406 C 44.242 212.635 47.315 211.356 46.974 207.661 C 46.362 201.045 41.49 186.842 30 186.842 L 30 186.842 Z " fill="rgb(255,255,255)" mask="url(#mask-h1-0)" vector-effect="non-scaling-stroke" stroke-width="10" stroke="#444440" stroke-linejoin="round" stroke-linecap="butt" stroke-miterlimit="4"/><mask id="mask-h1-1" x="-200%" y="-200%" width="400%" height="400%"><rect x="-200%" y="-200%" width="400%" height="400%" style="fill:#fff;"/><path d=" M 42.719 179.719 C 42.719 183.093 41.379 186.328 38.994 188.713 C 36.609 191.098 33.373 192.438 30 192.438 C 26.627 192.438 23.391 191.098 21.006 188.713 C 18.621 186.328 17.281 183.093 17.281 179.719 C 17.281 176.346 18.621 173.111 21.006 170.725 C 23.391 168.34 26.627 167 30 167 C 33.373 167 36.609 168.34 38.994 170.725 C 41.379 173.111 42.719 176.346 42.719 179.719 L 42.719 179.719 Z " fill="black" stroke="none"/></mask><path d=" M 42.719 179.719 C 42.719 183.093 41.379 186.328 38.994 188.713 C 36.609 191.098 33.373 192.438 30 192.438 C 26.627 192.438 23.391 191.098 21.006 188.713 C 18.621 186.328 17.281 183.093 17.281 179.719 C 17.281 176.346 18.621 173.111 21.006 170.725 C 23.391 168.34 26.627 167 30 167 C 33.373 167 36.609 168.34 38.994 170.725 C 41.379 173.111 42.719 176.346 42.719 179.719 L 42.719 179.719 Z " fill="rgb(255,255,255)"/><path d=" M 42.719 179.719 C 42.719 183.093 41.379 186.328 38.994 188.713 C 36.609 191.098 33.373 192.438 30 192.438 C 26.627 192.438 23.391 191.098 21.006 188.713 C 18.621 186.328 17.281 183.093 17.281 179.719 C 17.281 176.346 18.621 173.111 21.006 170.725 C 23.391 168.34 26.627 167 30 167 C 33.373 167 36.609 168.34 38.994 170.725 C 41.379 173.111 42.719 176.346 42.719 179.719 L 42.719 179.719 Z " fill="rgb(255,255,255)" mask="url(#mask-h1-1)" vector-effect="non-scaling-stroke" stroke-width="10" stroke="#444440" stroke-linejoin="round" stroke-linecap="butt" stroke-miterlimit="4"/></g><g><mask id="mask-h2-0" x="-200%" y="-200%" width="400%" height="400%"><rect x="-200%" y="-200%" width="400%" height="400%" style="fill:#fff;"/><path d=" M 135.584 206.521 C 135.022 205.143 133.736 203.246 133.736 203.246 C 133.736 203.246 135.71 219.521 134.644 225.925 C 134.106 229.159 129.439 229.605 128.663 225.693 C 128.119 222.947 127.505 218.407 124.029 218.407 C 120.552 218.407 119.938 222.947 119.394 225.693 C 118.618 229.605 113.951 229.159 113.413 225.925 C 112.347 219.521 114.321 203.246 114.321 203.246 C 114.321 203.246 112.484 205.956 111.079 209.403 C 109.763 212.632 106.684 211.353 107.026 207.657 C 107.639 201.04 112.519 186.835 124.029 186.835 L 124.029 186.835 C 131.434 186.835 136.095 192.716 138.606 198.677 L 135.584 206.521 L 135.584 206.521 Z " fill="black" stroke="none"/></mask><path d=" M 135.584 206.521 C 135.022 205.143 133.736 203.246 133.736 203.246 C 133.736 203.246 135.71 219.521 134.644 225.925 C 134.106 229.159 129.439 229.605 128.663 225.693 C 128.119 222.947 127.505 218.407 124.029 218.407 C 120.552 218.407 119.938 222.947 119.394 225.693 C 118.618 229.605 113.951 229.159 113.413 225.925 C 112.347 219.521 114.321 203.246 114.321 203.246 C 114.321 203.246 112.484 205.956 111.079 209.403 C 109.763 212.632 106.684 211.353 107.026 207.657 C 107.639 201.04 112.519 186.835 124.029 186.835 L 124.029 186.835 C 131.434 186.835 136.095 192.716 138.606 198.677 L 135.584 206.521 L 135.584 206.521 Z " fill="rgb(255,255,255)"/><path d=" M 135.584 206.521 C 135.022 205.143 133.736 203.246 133.736 203.246 C 133.736 203.246 135.71 219.521 134.644 225.925 C 134.106 229.159 129.439 229.605 128.663 225.693 C 128.119 222.947 127.505 218.407 124.029 218.407 C 120.552 218.407 119.938 222.947 119.394 225.693 C 118.618 229.605 113.951 229.159 113.413 225.925 C 112.347 219.521 114.321 203.246 114.321 203.246 C 114.321 203.246 112.484 205.956 111.079 209.403 C 109.763 212.632 106.684 211.353 107.026 207.657 C 107.639 201.04 112.519 186.835 124.029 186.835 L 124.029 186.835 C 131.434 186.835 136.095 192.716 138.606 198.677 L 135.584 206.521 L 135.584 206.521 Z " fill="rgb(255,255,255)" mask="url(#mask-h2-0)" vector-effect="non-scaling-stroke" stroke-width="10" stroke="#444440" stroke-linejoin="round" stroke-linecap="butt" stroke-miterlimit="4"/><mask id="mask-h2-1" x="-200%" y="-200%" width="400%" height="400%"><rect x="-200%" y="-200%" width="400%" height="400%" style="fill:#fff;"/><path d=" M 141 197.855 C 139.733 196.408 139.279 195.774 138.844 195.12 C 136.81 192.056 132.05 193.27 132.579 196.777 C 132.916 199.016 134.093 202.17 136.328 205.299 L 141 197.855 L 141 197.855 Z " fill="black" stroke="none"/></mask><path d=" M 141 197.855 C 139.733 196.408 139.279 195.774 138.844 195.12 C 136.81 192.056 132.05 193.27 132.579 196.777 C 132.916 199.016 134.093 202.17 136.328 205.299 L 141 197.855 L 141 197.855 Z " fill="rgb(255,255,255)"/><path d=" M 141 197.855 C 139.733 196.408 139.279 195.774 138.844 195.12 C 136.81 192.056 132.05 193.27 132.579 196.777 C 132.916 199.016 134.093 202.17 136.328 205.299 L 141 197.855 L 141 197.855 Z " fill="rgb(255,255,255)" mask="url(#mask-h2-1)" vector-effect="non-scaling-stroke" stroke-width="10" stroke="#444440" stroke-linejoin="round" stroke-linecap="butt" stroke-miterlimit="4"/><mask id="mask-h2-2" x="-200%" y="-200%" width="400%" height="400%"><rect x="-200%" y="-200%" width="400%" height="400%" style="fill:#fff;"/><path d=" M 136.769 179.711 C 136.769 183.085 135.427 186.32 133.037 188.706 C 130.648 191.092 127.408 192.432 124.029 192.432 C 120.65 192.432 117.409 191.092 115.02 188.706 C 112.63 186.32 111.288 183.085 111.288 179.711 C 111.288 176.337 112.63 173.101 115.02 170.715 C 117.409 168.33 120.65 166.989 124.029 166.989 C 127.408 166.989 130.648 168.33 133.037 170.715 C 135.427 173.101 136.769 176.337 136.769 179.711 L 136.769 179.711 Z " fill="black" stroke="none"/></mask><path d=" M 136.769 179.711 C 136.769 183.085 135.427 186.32 133.037 188.706 C 130.648 191.092 127.408 192.432 124.029 192.432 C 120.65 192.432 117.409 191.092 115.02 188.706 C 112.63 186.32 111.288 183.085 111.288 179.711 C 111.288 176.337 112.63 173.101 115.02 170.715 C 117.409 168.33 120.65 166.989 124.029 166.989 C 127.408 166.989 130.648 168.33 133.037 170.715 C 135.427 173.101 136.769 176.337 136.769 179.711 L 136.769 179.711 Z " fill="rgb(255,255,255)"/><path d=" M 136.769 179.711 C 136.769 183.085 135.427 186.32 133.037 188.706 C 130.648 191.092 127.408 192.432 124.029 192.432 C 120.65 192.432 117.409 191.092 115.02 188.706 C 112.63 186.32 111.288 183.085 111.288 179.711 C 111.288 176.337 112.63 173.101 115.02 170.715 C 117.409 168.33 120.65 166.989 124.029 166.989 C 127.408 166.989 130.648 168.33 133.037 170.715 C 135.427 173.101 136.769 176.337 136.769 179.711 L 136.769 179.711 Z " fill="rgb(255,255,255)" mask="url(#mask-h2-2)" vector-effect="non-scaling-stroke" stroke-width="10" stroke="#444440" stroke-linejoin="round" stroke-linecap="butt" stroke-miterlimit="4"/><path d=" M 125.076 182.975 Q 123.606 187.483 134.316 186.916 Q 126.546 178.468 125.076 182.975 ZM 122.744 182.995 Q 124.228 187.547 113.506 186.945 Q 121.26 178.444 122.744 182.995 Z " fill-rule="evenodd" fill="#444440"/></g><g><mask id="mask-h3-0" x="-200%" y="-200%" width="400%" height="400%"><rect x="-200%" y="-200%" width="400%" height="400%" style="fill:#fff;"/><path d=" M 212.556 221.395 C 211.449 222.57 211.124 224.761 210.825 226.269 C 210.21 229.375 206.511 229.021 206.084 226.453 C 205.943 225.603 205.852 224.589 205.885 221.395 L 212.556 221.395 L 216.444 221.395 L 223.115 221.395 C 223.148 224.589 223.057 225.603 222.916 226.453 C 222.489 229.021 218.79 229.375 218.175 226.269 C 217.876 224.761 217.551 222.57 216.444 221.395 L 212.556 221.395 L 212.556 221.395 Z " fill="black" stroke="none"/></mask><path d=" M 212.556 221.395 C 211.449 222.57 211.124 224.761 210.825 226.269 C 210.21 229.375 206.511 229.021 206.084 226.453 C 205.943 225.603 205.852 224.589 205.885 221.395 L 212.556 221.395 L 216.444 221.395 L 223.115 221.395 C 223.148 224.589 223.057 225.603 222.916 226.453 C 222.489 229.021 218.79 229.375 218.175 226.269 C 217.876 224.761 217.551 222.57 216.444 221.395 L 212.556 221.395 L 212.556 221.395 Z " fill="rgb(255,255,255)"/><path d=" M 212.556 221.395 C 211.449 222.57 211.124 224.761 210.825 226.269 C 210.21 229.375 206.511 229.021 206.084 226.453 C 205.943 225.603 205.852 224.589 205.885 221.395 L 212.556 221.395 L 216.444 221.395 L 223.115 221.395 C 223.148 224.589 223.057 225.603 222.916 226.453 C 222.489 229.021 218.79 229.375 218.175 226.269 C 217.876 224.761 217.551 222.57 216.444 221.395 L 212.556 221.395 L 212.556 221.395 Z " fill="rgb(255,255,255)" mask="url(#mask-h3-0)" vector-effect="non-scaling-stroke" stroke-width="10" stroke="#444440" stroke-linejoin="round" stroke-linecap="butt" stroke-miterlimit="4"/><mask id="mask-h3-1" x="-200%" y="-200%" width="400%" height="400%"><rect x="-200%" y="-200%" width="400%" height="400%" style="fill:#fff;"/><path d=" M 223.115 219.395 C 223.368 216.129 222.196 206.446 222.196 206.446 C 222.196 206.446 223.652 208.598 224.766 211.335 C 225.81 213.899 228.25 212.883 227.979 209.949 C 227.494 204.695 223.625 193.417 214.5 193.417 L 214.5 193.417 C 205.375 193.417 201.506 204.695 201.021 209.949 C 200.75 212.883 203.19 213.899 204.234 211.335 C 205.348 208.598 206.804 206.446 206.804 206.446 C 206.804 206.446 205.632 216.129 205.885 219.395 L 212.556 219.395 L 216.444 219.395 L 223.115 219.395 L 223.115 219.395 Z " fill="black" stroke="none"/></mask><path d=" M 223.115 219.395 C 223.368 216.129 222.196 206.446 222.196 206.446 C 222.196 206.446 223.652 208.598 224.766 211.335 C 225.81 213.899 228.25 212.883 227.979 209.949 C 227.494 204.695 223.625 193.417 214.5 193.417 L 214.5 193.417 C 205.375 193.417 201.506 204.695 201.021 209.949 C 200.75 212.883 203.19 213.899 204.234 211.335 C 205.348 208.598 206.804 206.446 206.804 206.446 C 206.804 206.446 205.632 216.129 205.885 219.395 L 212.556 219.395 L 216.444 219.395 L 223.115 219.395 L 223.115 219.395 Z " fill="rgb(255,255,255)"/><path d=" M 223.115 219.395 C 223.368 216.129 222.196 206.446 222.196 206.446 C 222.196 206.446 223.652 208.598 224.766 211.335 C 225.81 213.899 228.25 212.883 227.979 209.949 C 227.494 204.695 223.625 193.417 214.5 193.417 L 214.5 193.417 C 205.375 193.417 201.506 204.695 201.021 209.949 C 200.75 212.883 203.19 213.899 204.234 211.335 C 205.348 208.598 206.804 206.446 206.804 206.446 C 206.804 206.446 205.632 216.129 205.885 219.395 L 212.556 219.395 L 216.444 219.395 L 223.115 219.395 L 223.115 219.395 Z " fill="rgb(255,255,255)" mask="url(#mask-h3-1)" vector-effect="non-scaling-stroke" stroke-width="10" stroke="#444440" stroke-linejoin="round" stroke-linecap="butt" stroke-miterlimit="4"/><mask id="mask-h3-2" x="-200%" y="-200%" width="400%" height="400%"><rect x="-200%" y="-200%" width="400%" height="400%" style="fill:#fff;"/><path d=" M 224.601 187.76 C 224.601 190.439 223.536 193.008 221.642 194.902 C 219.748 196.796 217.179 197.861 214.5 197.861 C 211.821 197.861 209.252 196.796 207.358 194.902 C 205.464 193.008 204.399 190.439 204.399 187.76 C 204.399 185.081 205.464 182.512 207.358 180.618 C 209.252 178.724 211.821 177.66 214.5 177.66 C 217.179 177.66 219.748 178.724 221.642 180.618 C 223.536 182.512 224.601 185.081 224.601 187.76 L 224.601 187.76 Z " fill="black" stroke="none"/></mask><path d=" M 224.601 187.76 C 224.601 190.439 223.536 193.008 221.642 194.902 C 219.748 196.796 217.179 197.861 214.5 197.861 C 211.821 197.861 209.252 196.796 207.358 194.902 C 205.464 193.008 204.399 190.439 204.399 187.76 C 204.399 185.081 205.464 182.512 207.358 180.618 C 209.252 178.724 211.821 177.66 214.5 177.66 C 217.179 177.66 219.748 178.724 221.642 180.618 C 223.536 182.512 224.601 185.081 224.601 187.76 L 224.601 187.76 Z " fill="rgb(255,255,255)"/><path d=" M 224.601 187.76 C 224.601 190.439 223.536 193.008 221.642 194.902 C 219.748 196.796 217.179 197.861 214.5 197.861 C 211.821 197.861 209.252 196.796 207.358 194.902 C 205.464 193.008 204.399 190.439 204.399 187.76 C 204.399 185.081 205.464 182.512 207.358 180.618 C 209.252 178.724 211.821 177.66 214.5 177.66 C 217.179 177.66 219.748 178.724 221.642 180.618 C 223.536 182.512 224.601 185.081 224.601 187.76 L 224.601 187.76 Z " fill="rgb(255,255,255)" mask="url(#mask-h3-2)" vector-effect="non-scaling-stroke" stroke-width="10" stroke="#444440" stroke-linejoin="round" stroke-linecap="butt" stroke-miterlimit="4"/></g><g id="cloud"><mask id="mask-cloud"><path d=" M 153.92 34.757 C 154.484 33.286 154.8 31.677 154.8 30 C 154.8 22.712 148.888 16.8 141.6 16.8 C 138.891 16.8 136.361 17.625 134.271 19.027 C 130.463 12.427 123.354 8 115.2 8 C 103.045 8 93.2 17.845 93.2 30 C 93.2 30.371 93.214 30.742 93.228 31.114 C 85.528 33.822 80 41.165 80 49.8 C 80 60.731 88.869 69.6 99.8 69.6 L 150.4 69.6 C 160.121 69.6 168 61.721 168 52 C 168 43.489 161.95 36.38 153.92 34.757 Z " fill="#fff" stroke="none"/></mask><path d=" M 153.92 34.757 C 154.484 33.286 154.8 31.677 154.8 30 C 154.8 22.712 148.888 16.8 141.6 16.8 C 138.891 16.8 136.361 17.625 134.271 19.027 C 130.463 12.427 123.354 8 115.2 8 C 103.045 8 93.2 17.845 93.2 30 C 93.2 30.371 93.214 30.742 93.228 31.114 C 85.528 33.822 80 41.165 80 49.8 C 80 60.731 88.869 69.6 99.8 69.6 L 150.4 69.6 C 160.121 69.6 168 61.721 168 52 C 168 43.489 161.95 36.38 153.92 34.757 Z " fill="none"/><path d=" M 153.92 34.757 C 154.484 33.286 154.8 31.677 154.8 30 C 154.8 22.712 148.888 16.8 141.6 16.8 C 138.891 16.8 136.361 17.625 134.271 19.027 C 130.463 12.427 123.354 8 115.2 8 C 103.045 8 93.2 17.845 93.2 30 C 93.2 30.371 93.214 30.742 93.228 31.114 C 85.528 33.822 80 41.165 80 49.8 C 80 60.731 88.869 69.6 99.8 69.6 L 150.4 69.6 C 160.121 69.6 168 61.721 168 52 C 168 43.489 161.95 36.38 153.92 34.757 Z " fill="none" mask="url(#mask-cloud)" vector-effect="non-scaling-stroke" stroke-width="10" stroke="#444440" stroke-linejoin="miter" stroke-linecap="square" stroke-miterlimit="3"/><path d=" M 100.3 38.8 L 100.3 38.8 C 101.68 38.8 102.8 39.997 102.8 41.47 L 102.8 45.03 C 102.8 46.503 101.68 47.7 100.3 47.7 L 100.3 47.7 C 98.92 47.7 97.8 46.503 97.8 45.03 L 97.8 41.47 C 97.8 39.997 98.92 38.8 100.3 38.8 ZM 107.5 39.9 L 107.5 39.9 C 108.88 39.9 110 41.097 110 42.57 L 110 46.13 C 110 47.603 108.88 48.8 107.5 48.8 L 107.5 48.8 C 106.12 48.8 105 47.603 105 46.13 L 105 42.57 C 105 41.097 106.12 39.9 107.5 39.9 Z " fill-rule="evenodd" fill="#444440"/></g><path id="p1" d=" M 38.683 137.514 L 39.042 137.514 C 39.991 137.514 40.762 138.285 40.762 139.234 L 40.762 141.846 C 40.762 142.795 39.991 143.566 39.042 143.566 L 38.683 143.566 C 37.734 143.566 36.964 142.795 36.964 141.846 L 36.964 139.234 C 36.964 138.285 37.734 137.514 38.683 137.514 L 38.683 137.514 ZM 53 144 C 53 140.287 51.539 136.726 48.937 134.1 C 46.336 131.474 42.807 130 39.128 130 C 31.466 130 25.406 136.316 25.255 144 Q 25.179 147.858 29.041 154.01 L 24.7 157.049 C 24.7 157.049 26.615 157.342 39.128 158 C 46.789 158 53 151.732 53 144 L 53 144 ZM 45.195 138.382 L 45.554 138.382 C 46.503 138.382 47.274 139.153 47.274 140.102 L 47.274 142.714 C 47.274 143.663 46.503 144.434 45.554 144.434 L 45.195 144.434 C 44.246 144.434 43.475 143.663 43.475 142.714 L 43.475 140.102 C 43.475 139.153 44.246 138.382 45.195 138.382 Z " fill-rule="evenodd" fill="#444440"/><path id="p2" d=" M 123.833 137.514 L 124.192 137.514 C 125.141 137.514 125.912 138.285 125.912 139.234 L 125.912 141.846 C 125.912 142.795 125.141 143.566 124.192 143.566 L 123.833 143.566 C 122.884 143.566 122.114 142.795 122.114 141.846 L 122.114 139.234 C 122.114 138.285 122.884 137.514 123.833 137.514 L 123.833 137.514 ZM 138.15 144 C 138.15 140.287 136.689 136.726 134.087 134.1 C 131.486 131.474 127.957 130 124.278 130 C 116.616 130 110.556 136.316 110.405 144 Q 110.329 147.858 114.191 154.01 L 109.85 157.049 C 109.85 157.049 111.765 157.342 124.278 158 C 131.939 158 138.15 151.732 138.15 144 L 138.15 144 ZM 130.345 138.382 L 130.704 138.382 C 131.653 138.382 132.424 139.153 132.424 140.102 L 132.424 142.714 C 132.424 143.663 131.653 144.434 130.704 144.434 L 130.345 144.434 C 129.396 144.434 128.625 143.663 128.625 142.714 L 128.625 140.102 C 128.625 139.153 129.396 138.382 130.345 138.382 Z " fill-rule="evenodd" fill="#444440"/><path id="p3" d=" M 209.317 137.514 L 208.958 137.514 C 208.009 137.514 207.238 138.285 207.238 139.234 L 207.238 141.846 C 207.238 142.795 208.009 143.566 208.958 143.566 L 209.317 143.566 C 210.266 143.566 211.036 142.795 211.036 141.846 L 211.036 139.234 C 211.036 138.285 210.266 137.514 209.317 137.514 L 209.317 137.514 ZM 195 144 C 195 140.287 196.461 136.726 199.063 134.1 C 201.664 131.474 205.193 130 208.872 130 C 216.534 130 222.594 136.316 222.745 144 Q 222.821 147.858 218.959 154.01 L 223.3 157.049 C 223.3 157.049 221.385 157.342 208.872 158 C 201.211 158 195 151.732 195 144 L 195 144 ZM 202.805 138.382 L 202.446 138.382 C 201.497 138.382 200.726 139.153 200.726 140.102 L 200.726 142.714 C 200.726 143.663 201.497 144.434 202.446 144.434 L 202.805 144.434 C 203.754 144.434 204.525 143.663 204.525 142.714 L 204.525 140.102 C 204.525 139.153 203.754 138.382 202.805 138.382 Z " fill-rule="evenodd" fill="#444440"/></svg>