<?xml version="1.0" encoding="UTF-8"?><svg xmlns="http://www.w3.org/2000/svg" style="isolation:isolate" viewBox="0 0 128 128" width="128pt" height="128pt"><path d=" M 42.603 58.944 L 44.653 58.878 C 45.033 58.866 45.348 59.165 45.356 59.545 L 45.433 63.223 C 45.441 63.603 45.138 63.922 44.758 63.934 L 42.708 64 C 42.328 64.012 42.013 63.713 42.005 63.333 L 41.928 59.655 C 41.921 59.275 42.223 58.956 42.603 58.944 L 42.603 58.944 L 42.603 58.944 L 42.603 58.944 L 42.603 58.944 Z  M 85.76 62.869 L 85.247 63.111 L 84.734 63.353 C 83.844 63.774 82.604 63.506 81.967 62.755 L 81.564 62.28 L 81.161 61.805 C 80.524 61.053 80.389 59.741 80.859 58.876 L 81.17 58.304 L 81.482 57.732 C 81.952 56.867 83.114 56.34 84.074 56.557 L 84.61 56.678 L 85.146 56.799 C 86.106 57.016 86.965 57.987 87.062 58.967 L 87.13 59.649 L 87.197 60.33 C 87.294 61.31 86.65 62.448 85.76 62.869 L 85.76 62.869 L 85.76 62.869 L 85.76 62.869 Z  M 58.608 58.944 L 60.658 58.878 C 61.038 58.866 61.353 59.165 61.361 59.545 L 61.438 63.223 C 61.446 63.603 61.143 63.922 60.763 63.934 L 58.713 64 C 58.333 64.012 58.018 63.713 58.01 63.333 L 57.933 59.655 C 57.925 59.275 58.228 58.956 58.608 58.944 L 58.608 58.944 L 58.608 58.944 Z  M 40.811 55.138 L 46.141 54.967 C 47.991 54.907 49.524 56.361 49.562 58.211 L 50.133 85.595 C 50.172 87.445 48.701 88.995 46.852 89.055 L 41.522 89.226 C 39.672 89.286 38.139 87.832 38.101 85.982 L 37.53 58.598 C 37.491 56.748 38.962 55.198 40.811 55.138 L 40.811 55.138 L 40.811 55.138 L 40.811 55.138 L 40.811 55.138 Z  M 83.022 47.494 L 88.883 48.362 C 91.054 48.684 92.53 50.703 92.177 52.868 L 86.774 86.064 C 86.422 88.229 84.374 89.727 82.203 89.405 L 76.342 88.537 C 74.171 88.216 72.695 86.197 73.048 84.031 L 78.451 50.836 C 78.803 48.67 80.851 47.173 83.022 47.494 L 83.022 47.494 L 83.022 47.494 L 83.022 47.494 Z  M 56.816 55.138 L 62.146 54.967 C 63.996 54.907 65.529 56.361 65.567 58.211 L 66.138 85.595 C 66.177 87.445 64.706 88.995 62.857 89.055 L 57.527 89.226 C 55.677 89.286 54.144 87.832 54.106 85.982 L 53.535 58.598 C 53.496 56.748 54.966 55.198 56.816 55.138 L 56.816 55.138 L 56.816 55.138 Z  M 91.629 91.206 L 30.081 91.206 L 36.938 36.349 L 98.486 36.349 L 91.629 91.206 L 91.629 91.206 L 91.629 91.206 L 91.629 91.206 L 91.629 91.206 Z  M 89.899 105.052 L 28.351 105.052 L 27.469 112.103 C 27.059 115.383 24.046 117.938 20.743 117.805 L 18.899 117.731 C 15.597 117.598 13.248 114.827 13.658 111.548 L 14.47 105.052 L 10.629 105.052 C 7.205 105.052 4.424 102.272 4.424 98.848 L 4.424 97.411 C 4.424 93.986 7.205 91.206 10.629 91.206 L 10.629 91.206 L 16.201 91.206 L 23.057 36.349 L 10.629 36.349 C 7.205 36.349 4.424 33.569 4.424 30.145 L 4.424 28.708 C 4.424 25.283 7.205 22.503 10.629 22.503 L 10.629 22.503 L 10.629 22.503 L 24.788 22.503 L 24.788 22.503 L 26.012 12.71 C 26.422 9.431 29.436 6.876 32.738 7.009 L 34.582 7.083 C 37.884 7.216 40.233 9.986 39.823 13.266 L 38.668 22.503 L 100.216 22.503 L 101.44 12.71 C 101.85 9.431 104.864 6.876 108.167 7.009 L 110.011 7.083 C 113.313 7.216 115.661 9.986 115.251 13.266 L 114.097 22.503 L 117.371 22.503 C 120.795 22.503 123.576 25.283 123.576 28.708 L 123.576 30.145 C 123.576 33.569 120.795 36.349 117.371 36.349 L 112.366 36.349 L 105.51 91.206 L 117.371 91.206 C 120.795 91.206 123.576 93.986 123.576 97.411 L 123.576 98.848 C 123.576 102.272 120.795 105.052 117.371 105.052 L 103.779 105.052 L 102.898 112.103 C 102.488 115.383 99.474 117.938 96.172 117.805 L 94.328 117.731 C 91.025 117.598 88.677 114.827 89.087 111.548 L 89.899 105.052 L 89.899 105.052 L 89.899 105.052 L 89.899 105.052 L 89.899 105.052 Z  M 18.286 0 L 109.714 0 C 119.806 0 128 8.194 128 18.286 L 128 109.714 C 128 119.806 119.806 128 109.714 128 L 18.286 128 C 8.194 128 0 119.806 0 109.714 L 0 18.286 C 0 8.194 8.194 0 18.286 0 L 18.286 0 L 18.286 0 L 18.286 0 L 18.286 0 L 18.286 0 L 18.286 0 L 18.286 0 Z  M 46.89 49.67 L 45.087 49.67 L 43.285 49.67 C 42.387 49.67 42.058 49.061 42.549 48.31 L 43.373 47.052 L 44.196 45.794 C 44.688 45.044 45.486 45.044 45.978 45.794 L 46.801 47.052 L 47.625 48.31 C 48.117 49.061 47.787 49.67 46.89 49.67 L 46.89 49.67 Z  M 38.903 49.014 L 38.903 45.502 C 38.903 43.862 40.234 42.545 41.874 42.564 L 70.024 42.882 C 71.664 42.901 72.996 44.247 72.996 45.887 L 72.996 49.4 C 72.996 51.04 71.664 52.357 70.024 52.338 L 41.874 52.02 C 40.234 52.001 38.903 50.654 38.903 49.014 L 38.903 49.014 Z " fill-rule="evenodd" fill="#444440"/></svg>