<?xml version="1.0" encoding="UTF-8"?><svg xmlns="http://www.w3.org/2000/svg" style="isolation:isolate" viewBox="0 0 220 120" width="220pt" height="160"><defs><style>@keyframes ld-p{0%,50%,to{transform:translateX(0)}25%{transform:translateX(-2pt)}75%{transform:translateX(3pt)}}@keyframes ld-r0{0%{transform:translateX(16pt);opacity:0}25%{opacity:1}50%{transform:translateX(0)}75%{transform:translateX(-7pt);opacity:1}to{transform:translateX(-10pt);opacity:0}}@keyframes ld-r1{0%{transform:translateX(10pt);opacity:0}25%,75%{opacity:1}50%{ransform:translateX(8pt)}to{transform:translateX(-7pt);opacity:0}}@keyframes ld-r2{0%{transform:translateX(10pt);opacity:0}25%,75%{opacity:1}50%{transform:translateX(-5pt)}to{transform:translateX(-20pt);opacity:0}}</style></defs><path d="M155.946 38.689h1.178c3.119 0 5.651 2.532 5.651 5.651v8.583c0 3.118-2.532 5.651-5.651 5.651h-1.178c-3.119 0-5.651-2.533-5.651-5.651V44.34c0-3.119 2.532-5.651 5.651-5.651zM202.986 60c.001-12.2-4.801-23.902-13.349-32.529-8.548-8.626-20.143-13.472-32.232-13.471-25.174 0-45.086 20.752-45.581 46q-.249 12.677 12.44 32.89L110 102.875s6.294.963 47.405 3.125c25.174 0 45.581-20.595 45.581-46zm-25.645-18.459h1.178c3.119 0 5.652 2.532 5.652 5.651v8.583c0 3.119-2.533 5.651-5.652 5.651h-1.178c-3.119 0-5.651-2.532-5.651-5.651v-8.583c0-3.119 2.532-5.651 5.651-5.651z" fill-rule="evenodd" fill="#444440" style="animation:ld-p linear .8s infinite"/><path d="M32.24 50.192h42.52c1.788 0 3.24 1.345 3.24 3 0 1.656-1.452 3-3.24 3H32.24c-1.788 0-3.24-1.344-3.24-3 0-1.655 1.452-3 3.24-3z" fill="#444440" style="animation:ld-r0 ease-in 1.1s infinite"/><path d="M28.625 66.614h56.75c1.449 0 2.625 1.176 2.625 2.625v.75c0 1.449-1.176 2.625-2.625 2.625h-56.75c-1.449 0-2.625-1.176-2.625-2.625v-.75c0-1.449 1.176-2.625 2.625-2.625zm-12.625 3c0-1.656 1.344-3 3-3s3 1.344 3 3-1.344 3-3 3-3-1.344-3-3z" fill-rule="evenodd" fill="#444440" style="animation:ld-r1 ease-in 1s infinite"/><path d="M52.94 82.614h41.12c1.623 0 2.94 1.317 2.94 2.94v.12c0 1.622-1.317 2.94-2.94 2.94H52.94c-1.623 0-2.94-1.318-2.94-2.94v-.12c0-1.623 1.317-2.94 2.94-2.94z" fill="#444440" style="animation:ld-r2 ease-in .9s infinite"/></svg>