<?xml version="1.0" encoding="UTF-8"?><svg xmlns="http://www.w3.org/2000/svg" viewBox="0 0 500 80" width="500pt" height="80pt"><defs><style>#ld {animation:loading 1.7s ease-in-out both infinite;} @keyframes loading {0% {opacity:0; transform:translateX(0);} 50% {opacity:1; transform:translateX(40%);} 100% {opacity: 0; transform: translateX(80%);}}</style></defs><g id="ld"><path d=" M 39.537 26.199 L 40.3 26.199 C 42.32 26.199 43.96 27.839 43.96 29.858 L 43.96 35.417 C 43.96 37.436 42.32 39.076 40.3 39.076 L 39.537 39.076 C 37.517 39.076 35.878 37.436 35.878 35.417 L 35.878 29.858 C 35.878 27.839 37.517 26.199 39.537 26.199 L 39.537 26.199 Z  M 70 40 C 70.001 32.099 66.891 24.522 61.355 18.935 C 55.82 13.348 48.311 10.21 40.482 10.211 C 24.18 10.211 11.285 23.649 10.964 40 Q 10.803 48.21 19.02 61.299 L 9.783 67.765 C 9.783 67.765 13.859 68.389 40.482 69.789 C 56.784 69.789 70 56.452 70 40 L 70 40 Z  M 53.393 28.046 L 54.156 28.046 C 56.176 28.046 57.815 29.686 57.815 31.706 L 57.815 37.264 C 57.815 39.284 56.176 40.924 54.156 40.924 L 53.393 40.924 C 51.373 40.924 49.733 39.284 49.733 37.264 L 49.733 31.706 C 49.733 29.686 51.373 28.046 53.393 28.046 Z " fill-rule="evenodd" fill="#444440"/></g></svg>