<?xml version="1.0" encoding="UTF-8"?><svg xmlns="http://www.w3.org/2000/svg" viewBox="0 0 220 60" width="220pt" height="60pt"><path d=" M 80.108 47.014 L 80.108 47.014 L 80.108 47.014 Q 78.868 48.298 76.604 48.298 L 76.604 48.298 L 76.604 48.298 Q 74.341 48.298 73.079 47.014 L 73.079 47.014 L 73.079 47.014 Q 71.816 45.73 71.816 43.51 L 71.816 43.51 L 71.816 21.31 L 71.816 21.31 Q 71.816 18.916 73.1 17.611 L 73.1 17.611 L 73.1 17.611 Q 74.384 16.305 76.822 16.305 L 76.822 16.305 L 83.83 16.305 L 83.83 16.305 Q 90.229 16.305 93.733 19.373 L 93.733 19.373 L 93.733 19.373 Q 97.237 22.442 97.237 28.232 L 97.237 28.232 L 97.237 28.232 Q 97.237 34.021 93.733 37.09 L 93.733 37.09 L 93.733 37.09 Q 90.229 40.158 83.917 40.158 L 83.917 40.158 L 81.349 40.158 L 81.349 43.51 L 81.349 43.51 Q 81.349 45.73 80.108 47.014 Z  M 83.7 24.183 L 81.349 24.183 L 81.349 32.28 L 83.656 32.28 L 83.656 32.28 Q 88.009 32.28 88.009 28.232 L 88.009 28.232 L 88.009 28.232 Q 88.009 24.183 83.7 24.183 L 83.7 24.183 Z  M 118.015 48.647 L 118.015 48.647 L 118.015 48.647 Q 110.267 48.647 105.783 44.163 L 105.783 44.163 L 105.783 44.163 Q 101.3 39.68 101.3 32.367 L 101.3 32.367 L 101.3 32.367 Q 101.3 25.228 105.827 20.614 L 105.827 20.614 L 105.827 20.614 Q 110.354 16 117.928 16 L 117.928 16 L 117.928 16 Q 125.502 16 130.029 20.614 L 130.029 20.614 L 130.029 20.614 Q 134.556 25.228 134.556 32.367 L 134.556 32.367 L 134.556 32.367 Q 134.556 39.68 130.137 44.163 L 130.137 44.163 L 130.137 44.163 Q 125.719 48.647 118.015 48.647 Z  M 117.928 40.115 L 117.928 40.115 L 117.928 40.115 Q 121.018 40.115 122.846 38.091 L 122.846 38.091 L 122.846 38.091 Q 124.675 36.067 124.675 32.367 L 124.675 32.367 L 124.675 32.367 Q 124.675 28.58 122.803 26.577 L 122.803 26.577 L 122.803 26.577 Q 120.931 24.575 117.928 24.575 L 117.928 24.575 L 117.928 24.575 Q 114.924 24.575 113.074 26.577 L 113.074 26.577 L 113.074 26.577 Q 111.224 28.58 111.224 32.367 L 111.224 32.367 L 111.224 32.367 Q 111.224 36.067 113.074 38.091 L 113.074 38.091 L 113.074 38.091 Q 114.924 40.115 117.928 40.115 Z  M 148.695 47.014 L 148.695 47.014 L 148.695 47.014 Q 147.455 48.298 145.191 48.298 L 145.191 48.298 L 145.191 48.298 Q 142.928 48.298 141.665 47.014 L 141.665 47.014 L 141.665 47.014 Q 140.403 45.73 140.403 43.51 L 140.403 43.51 L 140.403 21.136 L 140.403 21.136 Q 140.403 18.916 141.665 17.611 L 141.665 17.611 L 141.665 17.611 Q 142.928 16.305 145.191 16.305 L 145.191 16.305 L 145.191 16.305 Q 147.455 16.305 148.695 17.611 L 148.695 17.611 L 148.695 17.611 Q 149.936 18.916 149.936 21.136 L 149.936 21.136 L 149.936 43.51 L 149.936 43.51 Q 149.936 45.73 148.695 47.014 Z  M 172.259 46.949 L 172.259 46.949 L 172.259 46.949 Q 170.975 48.298 168.58 48.298 L 168.58 48.298 L 168.58 48.298 Q 166.186 48.298 164.859 46.949 L 164.859 46.949 L 164.859 46.949 Q 163.531 45.599 163.531 43.249 L 163.531 43.249 L 163.531 36.85 L 156.044 23.618 L 156.044 23.618 Q 155.13 21.92 155.13 20.396 L 155.13 20.396 L 155.13 20.396 Q 155.13 18.612 156.349 17.458 L 156.349 17.458 L 156.349 17.458 Q 157.568 16.305 159.701 16.305 L 159.701 16.305 L 159.701 16.305 Q 161.355 16.305 162.291 17.066 L 162.291 17.066 L 162.291 17.066 Q 163.226 17.828 164.315 20.048 L 164.315 20.048 L 168.493 28.319 L 168.58 28.319 L 172.716 20.048 L 172.716 20.048 Q 173.804 17.828 174.74 17.066 L 174.74 17.066 L 174.74 17.066 Q 175.676 16.305 177.33 16.305 L 177.33 16.305 L 177.33 16.305 Q 179.419 16.305 180.638 17.436 L 180.638 17.436 L 180.638 17.436 Q 181.857 18.568 181.857 20.353 L 181.857 20.353 L 181.857 20.353 Q 181.857 21.963 180.943 23.574 L 180.943 23.574 L 173.543 36.85 L 173.543 43.249 L 173.543 43.249 Q 173.543 45.599 172.259 46.949 Z  M 201.459 48.647 L 201.459 48.647 L 201.459 48.647 Q 193.711 48.647 189.228 44.163 L 189.228 44.163 L 189.228 44.163 Q 184.744 39.68 184.744 32.367 L 184.744 32.367 L 184.744 32.367 Q 184.744 25.228 189.271 20.614 L 189.271 20.614 L 189.271 20.614 Q 193.798 16 201.372 16 L 201.372 16 L 201.372 16 Q 208.946 16 213.473 20.614 L 213.473 20.614 L 213.473 20.614 Q 218 25.228 218 32.367 L 218 32.367 L 218 32.367 Q 218 39.68 213.582 44.163 L 213.582 44.163 L 213.582 44.163 Q 209.164 48.647 201.459 48.647 Z  M 201.372 40.115 L 201.372 40.115 L 201.372 40.115 Q 204.463 40.115 206.291 38.091 L 206.291 38.091 L 206.291 38.091 Q 208.119 36.067 208.119 32.367 L 208.119 32.367 L 208.119 32.367 Q 208.119 28.58 206.247 26.577 L 206.247 26.577 L 206.247 26.577 Q 204.376 24.575 201.372 24.575 L 201.372 24.575 L 201.372 24.575 Q 198.369 24.575 196.519 26.577 L 196.519 26.577 L 196.519 26.577 Q 194.669 28.58 194.669 32.367 L 194.669 32.367 L 194.669 32.367 Q 194.669 36.067 196.519 38.091 L 196.519 38.091 L 196.519 38.091 Q 198.369 40.115 201.372 40.115 Z " fill="#444440" /><path d=" M 27.454 18.311 L 28.106 18.311 C 29.834 18.311 31.237 19.714 31.237 21.442 L 31.237 26.197 C 31.237 27.925 29.834 29.328 28.106 29.328 L 27.454 29.328 C 25.726 29.328 24.323 27.925 24.323 26.197 L 24.323 21.442 C 24.323 19.714 25.726 18.311 27.454 18.311 L 27.454 18.311 Z  M 53.514 30.118 C 53.514 23.359 50.854 16.877 46.118 12.097 C 41.383 7.318 34.959 4.633 28.262 4.634 C 14.316 4.634 3.285 16.131 3.01 30.118 Q 2.873 37.141 9.902 48.339 L 2 53.87 C 2 53.87 5.487 54.404 28.262 55.602 C 42.208 55.602 53.514 44.192 53.514 30.118 L 53.514 30.118 Z  M 39.307 19.892 L 39.959 19.892 C 41.687 19.892 43.09 21.295 43.09 23.023 L 43.09 27.777 C 43.09 29.505 41.687 30.908 39.959 30.908 L 39.307 30.908 C 37.579 30.908 36.176 29.505 36.176 27.777 L 36.176 23.023 C 36.176 21.295 37.579 19.892 39.307 19.892 Z " fill="#444440" fillRule="evenodd" /></svg>