<?xml version="1.0" encoding="UTF-8"?><svg xmlns="http://www.w3.org/2000/svg" viewBox="0 0 200 100" width="200pt" height="100pt"><g><path d=" M 50.932 53.374 L 53.628 50.2 C 53.937 49.835 53.892 49.288 53.528 48.979 L 52.448 48.062 L 52.448 48.062 C 52.084 47.753 51.537 47.798 51.228 48.162 L 48.653 51.194 L 45.685 48.355 C 45.362 48.046 44.849 48.057 44.54 48.38 L 43.375 49.598 C 43.066 49.921 43.078 50.434 43.401 50.743 L 46.511 53.718 L 43.815 56.892 C 43.506 57.257 43.551 57.804 43.915 58.113 L 44.995 59.03 C 45.359 59.339 45.906 59.294 46.215 58.93 L 48.79 55.898 L 51.758 58.737 C 52.081 59.046 52.594 59.035 52.903 58.712 L 54.068 57.494 C 54.377 57.171 54.365 56.658 54.042 56.349 L 50.932 53.374 Z  M 66.729 55.701 L 69.425 52.526 C 69.734 52.162 69.689 51.615 69.325 51.306 L 68.245 50.389 L 68.245 50.389 C 67.881 50.08 67.334 50.124 67.025 50.489 L 64.45 53.521 L 61.482 50.682 C 61.159 50.373 60.646 50.384 60.337 50.707 L 59.172 51.925 C 58.863 52.248 58.875 52.761 59.198 53.07 L 62.308 56.044 L 59.612 59.219 C 59.303 59.583 59.347 60.13 59.712 60.44 L 60.792 61.357 C 61.156 61.666 61.703 61.621 62.012 61.257 L 64.587 58.224 L 67.555 61.064 C 67.878 61.373 68.391 61.361 68.7 61.038 L 69.865 59.821 C 70.174 59.498 70.162 58.985 69.839 58.676 L 66.729 55.701 L 66.729 55.701 L 66.729 55.701 Z  M 76.051 60.791 C 76.052 52.702 72.868 44.943 67.2 39.223 C 61.532 33.503 53.844 30.29 45.829 30.291 C 29.137 30.291 15.935 44.051 15.607 60.791 Q 15.442 69.197 23.855 82.599 L 14.397 89.219 C 14.397 89.219 18.57 89.858 45.829 91.291 C 62.52 91.291 76.051 77.636 76.051 60.791 L 76.051 60.791 L 76.051 60.791 L 76.051 60.791 Z " fill-rule="evenodd" fill="#444440"/><path d=" M 119.416 74.791 L 167.245 74.791 C 169.5 74.791 171.33 76.622 171.33 78.877 L 171.33 87.205 C 171.33 89.46 169.5 91.291 167.245 91.291 L 119.416 91.291 C 117.161 91.291 115.33 89.46 115.33 87.205 L 115.33 78.877 C 115.33 76.622 117.161 74.791 119.416 74.791 Z  M 121.877 85.108 L 121.877 80.974 C 121.877 80.532 122.237 80.172 122.679 80.172 L 128.528 80.172 C 128.971 80.172 129.33 80.532 129.33 80.974 L 129.33 85.108 C 129.33 85.551 128.971 85.91 128.528 85.91 L 122.679 85.91 C 122.237 85.91 121.877 85.551 121.877 85.108 Z " fill-rule="evenodd" fill="#444440"/><path d=" M 151.094 73.022 L 123.976 33.625 C 122.697 31.767 123.167 29.221 125.025 27.942 L 131.885 23.22 C 133.743 21.942 136.289 22.412 137.567 24.269 L 164.685 63.667 C 165.964 65.525 165.494 68.071 163.636 69.349 L 156.776 74.071 C 154.918 75.35 152.372 74.88 151.094 73.022 Z  M 158.197 65.146 L 154.791 67.489 C 154.427 67.74 153.927 67.648 153.676 67.283 L 150.36 62.465 C 150.109 62.101 150.201 61.601 150.566 61.35 L 153.971 59.006 C 154.335 58.755 154.835 58.848 155.086 59.212 L 158.402 64.03 C 158.653 64.395 158.561 64.895 158.197 65.146 Z " fill-rule="evenodd" fill="#444440"/><path d=" M 174.95 38.671 L 190.769 83.808 C 191.515 85.936 190.393 88.269 188.265 89.015 L 180.405 91.769 C 178.277 92.515 175.944 91.393 175.198 89.265 L 159.379 44.128 C 158.633 42 159.755 39.667 161.884 38.921 L 169.743 36.166 C 171.871 35.421 174.205 36.543 174.95 38.671 Z  M 172.12 39.66 L 187.94 84.8 C 187.94 84.8 187.94 84.8 187.94 84.8 C 187.98 84.92 188 85.04 188 85.16 C 188 85.62 187.71 86.03 187.27 86.18 L 179.41 88.94 C 179.41 88.94 179.41 88.94 179.41 88.94 C 179.3 88.98 179.18 89 179.05 89 C 178.59 89 178.18 88.71 178.03 88.27 L 162.21 43.14 C 162.21 43.14 162.21 43.13 162.21 43.13 C 162.17 43.02 162.15 42.9 162.15 42.78 C 162.15 42.32 162.44 41.9 162.88 41.75 L 170.74 39 C 170.74 39 170.74 39 170.74 39 C 170.85 38.96 170.97 38.94 171.09 38.94 C 171.55 38.94 171.97 39.23 172.12 39.66 Z  M 166.028 44.406 L 169.929 43.038 C 170.347 42.892 170.805 43.112 170.952 43.53 L 172.886 49.05 C 173.032 49.468 172.812 49.926 172.394 50.072 L 168.493 51.439 C 168.075 51.586 167.617 51.365 167.471 50.948 L 165.537 45.428 C 165.39 45.01 165.61 44.552 166.028 44.406 Z " fill-rule="evenodd" fill="#444440"/><path d=" M 69.218 35.794 L 22.575 25.214 C 20.376 24.715 18.995 22.525 19.494 20.326 L 21.336 12.204 C 21.835 10.005 24.025 8.624 26.225 9.123 L 72.868 19.702 C 75.067 20.201 76.448 22.392 75.949 24.591 L 74.107 32.713 C 73.608 34.912 71.418 36.292 69.218 35.794 Z  M 69.88 32.87 L 23.24 22.29 C 23.24 22.29 23.24 22.29 23.24 22.29 C 23 22.23 22.78 22.1 22.63 21.91 C 22.48 21.72 22.39 21.48 22.39 21.23 C 22.39 21.15 22.4 21.07 22.42 20.99 C 22.42 20.99 22.42 20.99 22.42 20.99 L 24.26 12.87 C 24.26 12.87 24.26 12.87 24.26 12.87 C 24.32 12.63 24.45 12.41 24.64 12.26 C 24.83 12.11 25.07 12.02 25.32 12.02 C 25.4 12.02 25.48 12.03 25.56 12.05 C 25.56 12.05 25.56 12.05 25.56 12.05 L 72.2 22.63 C 72.2 22.63 72.21 22.63 72.21 22.63 C 72.45 22.68 72.66 22.82 72.81 23.01 C 72.97 23.2 73.05 23.44 73.05 23.68 C 73.05 23.77 73.04 23.85 73.02 23.93 C 73.02 23.93 73.02 23.93 73.02 23.93 L 71.18 32.05 C 71.18 32.05 71.18 32.05 71.18 32.05 C 71.13 32.29 70.99 32.5 70.8 32.66 C 70.61 32.81 70.37 32.9 70.12 32.9 C 70.04 32.9 69.96 32.89 69.88 32.87 C 69.88 32.87 69.88 32.87 69.88 32.87 Z  M 69.1 25.188 L 68.186 29.219 C 68.088 29.651 67.658 29.922 67.226 29.824 L 61.522 28.53 C 61.091 28.432 60.82 28.002 60.918 27.571 L 61.832 23.539 C 61.93 23.108 62.36 22.837 62.792 22.935 L 68.496 24.228 C 68.927 24.326 69.198 24.756 69.1 25.188 Z " fill-rule="evenodd" fill="#444440"/><path d=" M 91.001 78.317 L 125.25 44.931 C 126.864 43.357 129.453 43.39 131.027 45.005 L 136.841 50.969 C 138.415 52.584 138.382 55.173 136.767 56.747 L 102.518 90.132 C 100.904 91.706 98.315 91.673 96.741 90.058 L 90.927 84.095 C 89.353 82.48 89.386 79.891 91.001 78.317 Z  M 99.965 83.987 L 97.079 81.026 C 96.77 80.709 96.777 80.201 97.094 79.892 L 101.282 75.809 C 101.599 75.5 102.107 75.507 102.416 75.824 L 105.302 78.784 C 105.611 79.101 105.604 79.609 105.287 79.918 L 101.099 84.001 C 100.782 84.31 100.274 84.304 99.965 83.987 Z " fill-rule="evenodd" fill="#444440"/></g></svg>